<svg xmlns="http://www.w3.org/2000/svg" viewBox="0 0 1000 1000" xml:space="preserve"><switch><g><circle fill="#382B73" cx="500" cy="500" r="398"/><circle fill="#473080" cx="500" cy="500" r="344.3"/><path fill="#382B73" d="M747.7 440.2c0-.4 0-.7-.1-1.1v-.5c0-.2 0-.3-.1-.5-.1-.4-.2-.9-.3-1.3-1.4-5.3-6.3-9.3-12.1-9.3H719L507.2 210c-3.9-4-10.4-4-14.3 0L281 427.7h-16.2c-5.8 0-10.6 3.9-12.1 9.3-.1.4-.2.8-.3 1.3 0 .1 0 .3-.1.5v.5c0 .4-.1.7-.1 1.1 0 .4 0 .8.1 1.2.6 6.4 5.9 11.3 12.4 11.3h40v19.6c0 1.4.3 2.7.8 3.9.1.3.3.6.4.9 1.7 3.1 5 5.2 8.8 5.2h.5V675h-.5c-1 0-2 .2-3 .4-4.1 1.3-7 5.1-7 9.6v9.6H296c-7.5 0-13.6 5.5-14.8 12.6h-.2v26h438v-26h-.2c-1.2-7.1-7.3-12.6-14.8-12.6h-8.9V685c0-4.5-3-8.3-7-9.6-.6-.2-1.3-.3-2-.4-.3 0-.7-.1-1-.1h-.5V482.4h.5c5.5 0 10-4.5 10-10v-19.6h40c6.5 0 11.8-5 12.4-11.3.1-.5.2-.8.2-1.3 0 .1 0 .1 0 0zM394.9 692.1V684.9c0-4.5-3-8.3-7-9.6-.9-.3-1.9-.4-3-.4h-.5V482.4h.5c3.8 0 7.1-2.1 8.8-5.2.2-.3.3-.6.4-.9.5-1.2.8-2.5.8-3.9v-19.6H455v19.6c0 2.4.9 4.7 2.3 6.4 1.8 2.2 4.6 3.6 7.7 3.6h.5v192.5h-.5c-5.5 0-10 4.5-10 10v9.6h-60.1v-2.4zm210.2-232.7v12.9c0 2.4.9 4.7 2.3 6.4 1.8 2.2 4.6 3.6 7.7 3.6h.5v192.5h-.5c-5.5 0-10 4.5-10 10v9.6H545v-9.6c0-1.3-.3-2.5-.7-3.6-1.1-2.7-3.3-4.8-6-5.8-1-.4-2.1-.6-3.3-.6h-.5V482.4h.5c5.5 0 10-4.5 10-10v-19.7h60.1v6.7z"/><g><path fill="#E6E7E8" d="M719 713.1H281v-23.6c0-8.3 6.7-15 15-15h408c8.3 0 15 6.7 15 15v23.6zM719 407.7H281l211.8-217.8c3.9-4 10.4-4 14.3 0L719 407.7z"/><path fill="#D1D3D4" d="M661.3 389.2H338.7c-3.7 0-5.6-4.5-3-7.2L497 216.2c1.7-1.7 4.4-1.7 6.1 0l161.3 165.9c2.6 2.6.7 7.1-3.1 7.1z"/><path fill="#BCBEC0" d="M338.7 389.2h4.2l154-158.4c1.7-1.7 4.4-1.7 6.1 0l154 158.4h4.2c3.7 0 5.6-4.5 3-7.2L503 216.2c-1.7-1.7-4.4-1.7-6.1 0L335.6 382.1c-2.6 2.6-.7 7.1 3.1 7.1z"/><path fill="#E6E7E8" d="M735.2 432.7H264.8c-6.9 0-12.5-5.6-12.5-12.5s5.6-12.5 12.5-12.5h470.3c6.9 0 12.5 5.6 12.5 12.5.1 6.9-5.5 12.5-12.4 12.5z"/><path fill="#FFF" d="M735.2 407.7H264.8c-6.9 0-12.5 5.6-12.5 12.5 0 .8.1 1.6.2 2.3 1.1-5.8 6.2-10.2 12.3-10.2h470.3c6.1 0 11.2 4.4 12.3 10.2.1-.8.2-1.5.2-2.3.1-6.9-5.5-12.5-12.4-12.5z"/><path fill="#D1D3D4" d="M735.2 426.2H264.8c-5.8 0-10.6-3.9-12.1-9.3-.3 1-.4 2.1-.4 3.3 0 6.9 5.6 12.5 12.5 12.5h470.3c6.9 0 12.5-5.6 12.5-12.5 0-1.1-.2-2.2-.4-3.3-1.4 5.4-6.3 9.3-12 9.3z"/><path fill="#FFF" d="M281 687.1h438v5.2H281z"/><path fill="#BCBEC0" d="M281 700.6h438v12.5H281z"/><path fill="#D1D3D4" d="M315.4 462.4h69v192.5h-69z"/><path fill="#E6E7E8" d="M329.9 462.4h40v192.5h-40z"/><path fill="#D1D3D4" d="M329.9 649.8c-2.7 0-4.9-2.2-4.9-4.9V480.3c0-2.7 2.2-4.9 4.9-4.9s4.9 2.2 4.9 4.9V645c0 2.7-2.2 4.8-4.9 4.8zM349.9 649.8c-2.7 0-4.9-2.2-4.9-4.9V480.3c0-2.7 2.2-4.9 4.9-4.9s4.9 2.2 4.9 4.9V645c0 2.7-2.2 4.8-4.9 4.8zM369.9 649.8c-2.7 0-4.9-2.2-4.9-4.9V480.3c0-2.7 2.2-4.9 4.9-4.9s4.9 2.2 4.9 4.9V645c-.1 2.7-2.2 4.8-4.9 4.8z"/><path fill="#FFF" d="M329.9 645.8c-2.7 0-4.9-2.2-4.9-4.9V476.3c0-2.7 2.2-4.9 4.9-4.9s4.9 2.2 4.9 4.9V641c0 2.7-2.2 4.8-4.9 4.8zM349.9 645.8c-2.7 0-4.9-2.2-4.9-4.9V476.3c0-2.7 2.2-4.9 4.9-4.9s4.9 2.2 4.9 4.9V641c0 2.7-2.2 4.8-4.9 4.8zM369.9 645.8c-2.7 0-4.9-2.2-4.9-4.9V476.3c0-2.7 2.2-4.9 4.9-4.9s4.9 2.2 4.9 4.9V641c-.1 2.7-2.2 4.8-4.9 4.8z"/><path fill="#E6E7E8" d="M394.9 432.7h-90v19.6c0 5.5 4.5 10 10 10h70c5.5 0 10-4.5 10-10v-19.6z"/><path fill="#D1D3D4" d="M384.9 455.1h-70c-5.5 0-10-4.5-10-10v7.3c0 5.5 4.5 10 10 10h70c5.5 0 10-4.5 10-10v-7.3c0 5.6-4.5 10-10 10z"/><path fill="#E6E7E8" d="M304.9 674.5h90v-9.6c0-5.5-4.5-10-10-10h-70c-5.5 0-10 4.5-10 10v9.6z"/><path fill="#BCBEC0" d="M304.9 432.7h90v6.7h-90z"/><path fill="#D1D3D4" d="M304.9 668.8h90v6.7h-90z"/><path fill="#FFF" d="M314.9 662.1h70c5.5 0 10 4.5 10 10v-7.3c0-5.5-4.5-10-10-10h-70c-5.5 0-10 4.5-10 10v7.3c0-5.5 4.5-10 10-10zM304.9 439.4h90v5.7h-90z"/><g><path fill="#D1D3D4" d="M615.6 462.4h69v192.5h-69z"/><path fill="#E6E7E8" d="M630.1 462.4h40v192.5h-40z"/><path fill="#D1D3D4" d="M630.1 649.8c-2.7 0-4.9-2.2-4.9-4.9V480.3c0-2.7 2.2-4.9 4.9-4.9s4.9 2.2 4.9 4.9V645c0 2.7-2.2 4.8-4.9 4.8zM650.1 649.8c-2.7 0-4.9-2.2-4.9-4.9V480.3c0-2.7 2.2-4.9 4.9-4.9s4.9 2.2 4.9 4.9V645c0 2.7-2.2 4.8-4.9 4.8zM670.1 649.8c-2.7 0-4.9-2.2-4.9-4.9V480.3c0-2.7 2.2-4.9 4.9-4.9s4.9 2.2 4.9 4.9V645c-.1 2.7-2.2 4.8-4.9 4.8z"/><path fill="#FFF" d="M630.1 645.8c-2.7 0-4.9-2.2-4.9-4.9V476.3c0-2.7 2.2-4.9 4.9-4.9s4.9 2.2 4.9 4.9V641c0 2.7-2.2 4.8-4.9 4.8zM650.1 645.8c-2.7 0-4.9-2.2-4.9-4.9V476.3c0-2.7 2.2-4.9 4.9-4.9s4.9 2.2 4.9 4.9V641c0 2.7-2.2 4.8-4.9 4.8zM670.1 645.8c-2.7 0-4.9-2.2-4.9-4.9V476.3c0-2.7 2.2-4.9 4.9-4.9s4.9 2.2 4.9 4.9V641c-.1 2.7-2.2 4.8-4.9 4.8z"/><path fill="#E6E7E8" d="M695.1 432.7h-90v19.6c0 5.5 4.5 10 10 10h70c5.5 0 10-4.5 10-10v-19.6z"/><path fill="#D1D3D4" d="M685.1 455.1h-70c-5.5 0-10-4.5-10-10v7.3c0 5.5 4.5 10 10 10h70c5.5 0 10-4.5 10-10v-7.3c0 5.6-4.5 10-10 10z"/><path fill="#E6E7E8" d="M605.1 674.5h90v-9.6c0-5.5-4.5-10-10-10h-70c-5.5 0-10 4.5-10 10v9.6z"/><path fill="#BCBEC0" d="M605.1 432.7h90v6.7h-90z"/><path fill="#D1D3D4" d="M605.1 668.8h90v6.7h-90z"/><path fill="#FFF" d="M615.1 662.1h70c5.5 0 10 4.5 10 10v-7.3c0-5.5-4.5-10-10-10h-70c-5.5 0-10 4.5-10 10v7.3c0-5.5 4.5-10 10-10zM605.1 439.4h90v5.7h-90z"/></g><g><path fill="#BCBEC0" d="M527.3 335.1c0-4-.7-7.7-2-10.7-1.3-3.1-3.3-5.8-5.8-8.1-2.4-2.2-5.2-4.1-8.6-5.7-3.1-1.5-6.6-2.9-10.4-4.1-3.6-1.2-6.6-2.4-8.9-3.6-2.1-1.1-3.7-2.2-4.8-3.4-1-1-1.6-2-1.9-3-.2-.6-.3-1.3-.4-2 .1-.9.3-1.7.6-2.5.5-1.3 1.2-2.5 2.2-3.5 1-1 2.3-1.8 3.9-2.4 1.7-.6 3.8-1 6.3-1 2.3 0 4.2.4 5.9 1.1 1.6.7 2.9 1.7 4 3s2 3 2.6 4.9c.6 2 .9 4.3.9 6.7 0 2.4 1.9 4.3 4.3 4.3h7c2.4 0 4.3-1.9 4.3-4.3 0-1.2-.1-2.4-.1-3.6.1-.3.1-.7.1-1.1 0-4.4-.6-8.4-1.7-11.9-1.1-3.6-2.8-6.8-5.1-9.5-2.2-2.7-5-4.8-8.2-6.4-1.1-.6-2.4-1-3.6-1.4-1.8-.6-3-2.2-3-4.1V258c0-2.4-1.9-4.3-4.3-4.3h-6c-2.4 0-4.3 1.9-4.3 4.3v4.6c0 1.9-1.3 3.6-3.1 4.2-1.2.3-2.3.7-3.3 1.2-3.2 1.4-5.9 3.2-8.2 5.5-2.3 2.3-4.1 5.1-5.3 8.3-1.2 3.1-1.8 6.6-1.8 10.3 0 .8 0 1.6.1 2.4-.1.8-.1 1.5-.1 2.3 0 4.1.7 7.7 2 10.8 1.3 3.1 3.3 5.9 5.8 8.2 2.4 2.2 5.3 4.1 8.6 5.7 3.1 1.5 6.6 2.8 10.5 4.1 3.4 1.2 6.2 2.3 8.4 3.5 2 1.1 3.7 2.2 4.8 3.3 1 1 1.8 2.1 2.2 3.2.2.6.4 1.2.5 1.8-.1.8-.4 1.6-.7 2.3-.6 1.4-1.4 2.5-2.6 3.6-1.2 1.1-2.7 1.9-4.5 2.6-1.8.7-4 1-6.5 1-2 0-4-.3-6.1-.8-1.8-.5-3.4-1.2-4.9-2.4-1.4-1.1-2.6-2.6-3.5-4.5-.9-1.9-1.4-4.4-1.4-7.5 0-2.4-1.9-4.3-4.3-4.3h-7c-2.4 0-4.3 1.9-4.3 4.3 0 1.2.1 2.4.1 3.6-.1.4-.1.7-.1 1.1 0 5.1.8 9.6 2.4 13.3 1.6 3.7 3.9 6.9 6.7 9.3 2.7 2.4 5.9 4.2 9.4 5.4 1 .3 1.9.6 2.9.9 1.9.5 3.2 2.2 3.2 4.2v3.7c0 2.4 1.9 4.3 4.3 4.3h5.9c2.4 0 4.3-1.9 4.3-4.3v-3.9c0-1.9 1.3-3.7 3.2-4.2 1.2-.3 2.3-.7 3.4-1.1 3.3-1.3 6.1-3.1 8.5-5.4 2.4-2.3 4.3-5.1 5.6-8.3 1.3-3.1 1.9-6.6 1.9-10.5 0-.8 0-1.6-.1-2.4.1-.7.1-1.5.1-2.3z"/><path fill="#FFF" d="M525.3 323.2c-1.3-3.1-3.3-5.8-5.8-8.1-2.4-2.2-5.2-4.1-8.6-5.7-3.1-1.5-6.6-2.9-10.4-4.1-3.6-1.2-6.6-2.4-8.9-3.6-2.1-1.1-3.7-2.2-4.8-3.4-1-1-1.6-2-1.9-3-.4-1.3-.6-2.7-.6-4.4 0-1.7.3-3.2.8-4.7.5-1.3 1.2-2.5 2.2-3.5 1-1 2.3-1.8 3.9-2.4 1.7-.6 3.8-1 6.3-1 2.3 0 4.2.4 5.9 1.1 1.6.7 2.9 1.7 4 3s2 3 2.6 4.9c.6 2 .9 4.3.9 6.7 0 2.4 1.9 4.3 4.3 4.3h7c2.4 0 4.3-1.9 4.3-4.3 0-4.4-.6-8.4-1.7-11.9-1.1-3.6-2.8-6.8-5.1-9.5-2.2-2.7-5-4.8-8.2-6.4-1.1-.6-2.4-1-3.6-1.4-1.8-.6-3-2.2-3-4.1V257c0-2.4-1.9-4.3-4.3-4.3h-6c-2.4 0-4.3 1.9-4.3 4.3v4.6c0 1.9-1.3 3.6-3.1 4.2-1.2.3-2.3.7-3.3 1.2-3.2 1.4-5.9 3.2-8.2 5.5-2.3 2.3-4.1 5.1-5.3 8.3-1.2 3.1-1.8 6.6-1.8 10.3 0 4.1.7 7.7 2 10.8 1.3 3.1 3.3 5.9 5.8 8.2 2.4 2.2 5.3 4.1 8.6 5.7 3.1 1.5 6.6 2.8 10.5 4.1 3.4 1.2 6.2 2.3 8.4 3.5 2 1.1 3.7 2.2 4.8 3.3 1 1 1.8 2.1 2.2 3.2.5 1.2.7 2.7.7 4.3 0 1.6-.3 3.1-.9 4.5-.6 1.4-1.4 2.5-2.6 3.6-1.2 1.1-2.7 1.9-4.5 2.6-1.8.7-4 1-6.5 1-2 0-4-.3-6.1-.8-1.8-.5-3.4-1.2-4.9-2.4-1.4-1.1-2.6-2.6-3.5-4.5-.9-1.9-1.4-4.4-1.4-7.5 0-2.4-1.9-4.3-4.3-4.3h-7c-2.4 0-4.3 1.9-4.3 4.3 0 5.1.8 9.6 2.4 13.3 1.6 3.7 3.9 6.9 6.7 9.3 2.7 2.4 5.9 4.2 9.4 5.4 1 .3 1.9.6 2.9.9 1.9.5 3.2 2.2 3.2 4.2v3.7c0 2.4 1.9 4.3 4.3 4.3h5.9c2.4 0 4.3-1.9 4.3-4.3v-3.9c0-1.9 1.3-3.7 3.2-4.2 1.2-.3 2.3-.7 3.4-1.1 3.3-1.3 6.1-3.1 8.5-5.4 2.4-2.3 4.3-5.1 5.6-8.3 1.3-3.1 1.9-6.6 1.9-10.5 0-4.2-.6-7.8-2-10.9z"/></g><g><path fill="#D1D3D4" d="M465.5 462.4h69v192.5h-69z"/><path fill="#E6E7E8" d="M480 462.4h40v192.5h-40z"/><path fill="#D1D3D4" d="M480 649.8c-2.7 0-4.9-2.2-4.9-4.9V480.3c0-2.7 2.2-4.9 4.9-4.9s4.9 2.2 4.9 4.9V645c0 2.7-2.2 4.8-4.9 4.8zM500 649.8c-2.7 0-4.9-2.2-4.9-4.9V480.3c0-2.7 2.2-4.9 4.9-4.9s4.9 2.2 4.9 4.9V645c0 2.7-2.2 4.8-4.9 4.8zM520 649.8c-2.7 0-4.9-2.2-4.9-4.9V480.3c0-2.7 2.2-4.9 4.9-4.9s4.9 2.2 4.9 4.9V645c-.1 2.7-2.2 4.8-4.9 4.8z"/><path fill="#FFF" d="M480 645.8c-2.7 0-4.9-2.2-4.9-4.9V476.3c0-2.7 2.2-4.9 4.9-4.9s4.9 2.2 4.9 4.9V641c0 2.7-2.2 4.8-4.9 4.8zM500 645.8c-2.7 0-4.9-2.2-4.9-4.9V476.3c0-2.7 2.2-4.9 4.9-4.9s4.9 2.2 4.9 4.9V641c0 2.7-2.2 4.8-4.9 4.8zM520 645.8c-2.7 0-4.9-2.2-4.9-4.9V476.3c0-2.7 2.2-4.9 4.9-4.9s4.9 2.2 4.9 4.9V641c-.1 2.7-2.2 4.8-4.9 4.8z"/><path fill="#E6E7E8" d="M545 432.7h-90v19.6c0 5.5 4.5 10 10 10h70c5.5 0 10-4.5 10-10v-19.6z"/><path fill="#D1D3D4" d="M535 455.1h-70c-5.5 0-10-4.5-10-10v7.3c0 5.5 4.5 10 10 10h70c5.5 0 10-4.5 10-10v-7.3c0 5.6-4.5 10-10 10z"/><path fill="#E6E7E8" d="M455 674.5h90v-9.6c0-5.5-4.5-10-10-10h-70c-5.5 0-10 4.5-10 10v9.6z"/><path fill="#BCBEC0" d="M455 432.7h90v6.7h-90z"/><path fill="#D1D3D4" d="M455 668.8h90v6.7h-90z"/><path fill="#FFF" d="M465 662.1h70c5.5 0 10 4.5 10 10v-7.3c0-5.5-4.5-10-10-10h-70c-5.5 0-10 4.5-10 10v7.3c0-5.5 4.5-10 10-10zM455 439.4h90v5.7h-90z"/></g></g></g></switch></svg>